<svg xmlns="http://www.w3.org/2000/svg" width="125.636" height="111.125" viewBox="0 0 125.636 111.125">
  <defs>
    <style>
      .cls-1 {
        fill: #fcd118;
      }

      .cls-2 {
        fill: #5ca4a9;
      }
    </style>
  </defs>
  <g id="Sunny_cloudy" data-name="Sunny cloudy" transform="translate(-96 -128)">
    <path id="Path_86" data-name="Path 86" class="cls-1" d="M125.4,193.82a25.766,25.766,0,1,1,42.672-27.486l-8.909,3.744a16.108,16.108,0,1,0-26.675,17.171L125.4,193.82Zm-18.133-22.336a4.832,4.832,0,1,1,0,9.663h-6.44a4.832,4.832,0,1,1,0-9.663Zm14.267-24.776a4.831,4.831,0,1,1-6.832,6.832l-4.556-4.556a4.831,4.831,0,1,1,6.832-6.832Zm45.551,0a4.831,4.831,0,1,0,6.832,6.832l4.556-4.556a4.831,4.831,0,1,0-6.832-6.832Zm-17.944-7.436a4.832,4.832,0,0,1-9.663,0v-6.44a4.832,4.832,0,0,1,9.663,0Z"/>
    <path id="Path_87" data-name="Path 87" class="cls-2" d="M224.419,352a38.662,38.662,0,0,1,37.3,28.487A25.766,25.766,0,0,1,250.19,429.3H185.766a25.766,25.766,0,1,1,0-51.533h2.2A38.671,38.671,0,0,1,224.419,352Zm-27.342,28.989-2.276,6.445h-9.035a16.1,16.1,0,1,0,0,32.207h64.418a16.1,16.1,0,0,0,7.2-30.516l-3.86-1.937-1.135-4.17a29,29,0,0,0-55.316-2.029Z" transform="translate(-54.337 -190.179)"/>
  </g>
</svg>
