<?xml version="1.0" encoding="utf-8"?>
<!-- Generator: Adobe Illustrator 27.9.0, SVG Export Plug-In . SVG Version: 6.00 Build 0)  -->
<svg version="1.1" id="Layer_1" xmlns="http://www.w3.org/2000/svg" xmlns:xlink="http://www.w3.org/1999/xlink" x="0px" y="0px"
	 viewBox="0 0 800 800" style="enable-background:new 0 0 800 800;" xml:space="preserve">
<style type="text/css">
	.st0{opacity:0.5;fill:#9AC1BC;enable-background:new    ;}
	.st1{fill:#5CA4A9;}
</style>
<path class="st0" d="M408.5,732.5c-157.1,0-235.7,0-284.5-48.8c-48.8-48.8-48.8-127.4-48.8-284.5c0-157.1,0-235.7,48.8-284.5
	c48.8-48.8,127.4-48.8,284.5-48.8c157.1,0,235.7,0,284.5,48.8c48.8,48.8,48.8,127.4,48.8,284.5c0,157.1,0,235.7-48.8,284.5
	C644.2,732.5,565.6,732.5,408.5,732.5z"/>
<path class="st1" d="M559,286.1c10.9,10.9,10.9,28.7,0,39.6L372.3,512.3c-10.9,10.9-28.7,10.9-39.6,0L258,437.7
	c-10.9-10.9-10.9-28.7,0-39.6c10.9-10.9,28.7-10.9,39.6,0l54.9,54.9l166.9-166.9C530.3,275.2,548,275.2,559,286.1z"/>
</svg>
