<?xml version="1.0" encoding="utf-8"?>
<!-- Generator: Adobe Illustrator 27.9.0, SVG Export Plug-In . SVG Version: 6.00 Build 0)  -->
<svg version="1.1" id="Layer_1" xmlns="http://www.w3.org/2000/svg" xmlns:xlink="http://www.w3.org/1999/xlink" x="0px" y="0px"
	 viewBox="0 0 800 800" style="enable-background:new 0 0 800 800;" xml:space="preserve">
<style type="text/css">
	.st0{opacity:0.55;fill-rule:evenodd;clip-rule:evenodd;fill:#ED6A5A;}
	.st1{fill-rule:evenodd;clip-rule:evenodd;fill:#D11D20;}
</style>
<g id="error-box">
	<path id="vector__x28_Stroke_x29_" class="st0" d="M758.3,533.3c0,124.3-100.7,225-225,225H266.7c-124.3,0-225-100.7-225-225V266.7
		c0-124.3,100.7-225,225-225h266.7c124.3,0,225,100.7,225,225V533.3z"/>
	<g>
		<path id="vector__x28_Stroke_x29__x5F_2" class="st1" d="M516.9,546.4c-10.8,10.9-28.4,10.9-39.3,0L255.4,322.7
			c-10.8-10.9-10.8-28.6,0-39.5c10.8-10.9,28.4-10.9,39.3,0l222.2,223.7C527.7,517.8,527.7,535.5,516.9,546.4z"/>
		<path id="vector__x28_Stroke_x29__x5F_3" class="st1" d="M255.4,546.4c-10.8-10.9-10.8-28.6,0-39.5l222.2-223.7
			c10.8-10.9,28.4-10.9,39.3,0c10.8,10.9,10.8,28.6,0,39.5L294.6,546.4C283.8,557.3,266.2,557.3,255.4,546.4z"/>
	</g>
</g>
</svg>
