<svg xmlns="http://www.w3.org/2000/svg" width="71.166" height="66.09" viewBox="0 0 71.166 66.09">
  <g id="Group_409" data-name="Group 409" transform="translate(8747.233 -17434.203)">
    <path id="Path_24" data-name="Path 24" d="M91.524,22.172a28.8,28.8,0,1,0,0,40.736A28.8,28.8,0,0,0,91.524,22.172ZM61.714,51.982a13.355,13.355,0,1,1,18.887,0,13.355,13.355,0,0,1-18.887,0Z" transform="translate(-8782.645 17421.711)" fill="#e6e6e6"/>
    <path id="Path_25" data-name="Path 25" d="M58.683,62.907A28.8,28.8,0,0,1,75.1,14.006a28.8,28.8,0,1,0,0,57.067,28.675,28.675,0,0,1-16.421-8.165Z" transform="translate(-8782.645 17421.713)" fill="#ccc"/>
    <path id="Path_26" data-name="Path 26" d="M93.566,22.171a28.73,28.73,0,0,0-21.766-8.4,28.8,28.8,0,0,1,0,57.542A28.8,28.8,0,0,0,93.566,22.171Z" transform="translate(-8784.419 17421.713)" fill="#fff"/>
    <path id="Path_27" data-name="Path 27" d="M97.195,26.041,88.95,34.286h0L86.5,36.733a2.234,2.234,0,0,1-3.164,0L79.863,33.26a2.234,2.234,0,0,1,0-3.164L85.6,24.354l4.95-4.951a2.234,2.234,0,0,1,3.164,0l3.473,3.473a2.234,2.234,0,0,1,0,3.164Z" transform="translate(-8784.915 17421.363)" fill="#ed6a5a"/>
    <path id="Path_28" data-name="Path 28" d="M93.719,68.577,97.193,65.1a2.234,2.234,0,0,0,0-3.164L86.5,51.245a2.234,2.234,0,0,0-3.164,0l-3.474,3.474a2.234,2.234,0,0,0,0,3.164L90.554,68.577a2.234,2.234,0,0,0,3.164,0Z" transform="translate(-8784.915 17419.156)" fill="#ed6a5a"/>
    <path id="Path_29" data-name="Path 29" d="M88.95,34.7h0L86.5,37.151a2.234,2.234,0,0,1-3.164,0l-3.473-3.473a2.234,2.234,0,0,1,0-3.164L85.6,24.772A12.232,12.232,0,0,0,88.949,34.7Z" transform="translate(-8785.2 17420.947)" fill="#ed6a5a"/>
    <path id="Path_30" data-name="Path 30" d="M88.95,53.695h0L86.5,51.247a2.234,2.234,0,0,0-3.164,0L79.863,54.72a2.234,2.234,0,0,0,0,3.164l5.742,5.744A12.232,12.232,0,0,1,88.95,53.7Z" transform="translate(-8785.2 17419.158)" fill="#ed6a5a"/>
    <path id="Path_31" data-name="Path 31" d="M65.352,57.885l-5.621,5.621-5.075,5.072a2.234,2.234,0,0,1-3.164,0L48.017,65.1a2.234,2.234,0,0,1,0-3.164l10.7-10.694a2.234,2.234,0,0,1,3.164,0l3.475,3.473a2.241,2.241,0,0,1,0,3.164Z" transform="translate(-8782.991 17419.156)" fill="#ed6a5a"/>
    <path id="Path_32" data-name="Path 32" d="M65.353,33.261l-3.475,3.473a2.234,2.234,0,0,1-3.164,0l-3.847-3.847L48.019,26.04a2.234,2.234,0,0,1,0-3.164L51.492,19.4a2.234,2.234,0,0,1,3.164,0l5.075,5.07,5.621,5.621a2.234,2.234,0,0,1,0,3.164Z" transform="translate(-8782.992 17421.363)" fill="#ed6a5a"/>
    <path id="Path_33" data-name="Path 33" d="M48.02,26.041a2.234,2.234,0,0,1,0-3.164L51.492,19.4a2.234,2.234,0,0,1,3.164,0l5.076,5.07a28.581,28.581,0,0,0-4.865,8.411l-6.846-6.847Z" transform="translate(-8782.991 17421.363)" fill="#ed6a5a"/>
    <path id="Path_34" data-name="Path 34" d="M54.867,55.428a28.572,28.572,0,0,0,4.865,8.412l-5.076,5.073a2.234,2.234,0,0,1-3.164,0l-3.475-3.475a2.234,2.234,0,0,1,0-3.164l6.846-6.846Z" transform="translate(-8782.991 17418.82)" fill="#ed6a5a"/>
    <path id="Path_35" data-name="Path 35" d="M101.623,32.264a16.694,16.694,0,0,0-5.212-5.258q-.4-.665-.838-1.312a3.477,3.477,0,0,0-.584-4.131l-3.474-3.474a3.471,3.471,0,0,0-4.133-.584,29.808,29.808,0,0,0-7.652-3.694,1.235,1.235,0,0,0-.745,2.356,27.341,27.341,0,0,1,6.5,3.046L75.917,28.78c-.014.014-.025.029-.039.043a14.531,14.531,0,0,0-10.477,0c-.014-.014-.025-.03-.039-.044l-9.573-9.567a27.444,27.444,0,0,1,18.629-4.075,1.235,1.235,0,0,0,.337-2.448A29.9,29.9,0,0,0,53.885,17.5a3.471,3.471,0,0,0-4.132.584l-3.474,3.474a3.472,3.472,0,0,0-.585,4.132q-.4.586-.761,1.187l-.034-.071a15.7,15.7,0,0,0-5.563,5.453c-4.248,6.485-4.705,14.825-4.342,20.679a7.377,7.377,0,0,0,2.7,5.491,10.428,10.428,0,0,0,6.548,1.989c.35,0,.706-.015,1.067-.04a3.466,3.466,0,0,0,.977,2.945L49.758,66.8a3.47,3.47,0,0,0,4.133.584l.124.084A17.206,17.206,0,0,0,70.637,78.478,17.206,17.206,0,0,0,87.266,67.472l.124-.084a3.47,3.47,0,0,0,4.133-.584L95,63.329a3.466,3.466,0,0,0,.98-2.924c.251.012.5.02.745.02a10.429,10.429,0,0,0,6.54-1.994,7.377,7.377,0,0,0,2.7-5.491c.364-5.854-.093-14.193-4.342-20.679ZM77.664,30.53,88.358,19.836a1,1,0,0,1,1.417,0l3.476,3.474a1,1,0,0,1,0,1.417l-10.7,10.694a1,1,0,0,1-1.417,0l-3.473-3.477a1,1,0,0,1,0-1.417Zm-2.758.573c0,.046-.007.093-.007.136A3.449,3.449,0,0,0,75.917,33.7l3.474,3.474a3.45,3.45,0,0,0,2.455,1.017c.046,0,.093,0,.136-.007a12.066,12.066,0,0,1,0,8.534c-.045,0-.093-.007-.134-.007a3.449,3.449,0,0,0-2.455,1.017L75.919,51.2A3.45,3.45,0,0,0,74.9,53.656c0,.046,0,.093.007.134a12.064,12.064,0,0,1-8.536,0A3.46,3.46,0,0,0,65.364,51.2l-3.475-3.474a3.45,3.45,0,0,0-2.456-1.017c-.046,0-.093,0-.135.007a12.064,12.064,0,0,1,0-8.534c.045,0,.093.007.135.007a3.449,3.449,0,0,0,2.456-1.017l3.474-3.474a3.46,3.46,0,0,0,1.007-2.588,12.061,12.061,0,0,1,8.537,0ZM47.4,57.3a27.607,27.607,0,0,1,0-29.7l9.572,9.572c.014.014.03.026.044.039a14.53,14.53,0,0,0,0,10.477c-.014.014-.03.025-.043.039Zm.624-33.986L51.5,19.836a1,1,0,0,1,1.417,0L63.615,30.53a1,1,0,0,1,0,1.417l-3.474,3.474a1,1,0,0,1-1.417,0L48.029,24.728A1,1,0,0,1,48.029,23.31ZM39.241,56.5a4.911,4.911,0,0,1-1.778-3.71c-.337-5.417.058-13.113,3.843-19.018.346-.54.7-1.024,1.04-1.46a30.161,30.161,0,0,0,2.546,25.622A8.487,8.487,0,0,1,39.241,56.5ZM52.21,65.35a1,1,0,0,1-.709-.293l-3.474-3.474a1,1,0,0,1,0-1.417l10.7-10.694a1,1,0,0,1,1.417,0l3.474,3.474a1,1,0,0,1,0,1.417L61.7,56.278a1.235,1.235,0,0,0,1.747,1.747l1.916-1.915c.014-.014.025-.029.039-.043a14.512,14.512,0,0,0,10.476,0c.014.014.026.03.04.045l9.568,9.57a27.6,27.6,0,0,1-29.7,0l5.1-5.1a1.235,1.235,0,1,0-1.747-1.747l-6.225,6.225a1,1,0,0,1-.708.293ZM70.637,76.006a14.64,14.64,0,0,1-12.608-6.281,30.166,30.166,0,0,0,25.218,0,14.647,14.647,0,0,1-12.61,6.277ZM93.252,61.583l-3.474,3.474h0a1,1,0,0,1-1.417,0l-10.7-10.694a1,1,0,0,1,0-1.417l3.474-3.474a1,1,0,0,1,1.417,0l10.7,10.694a1,1,0,0,1,0,1.417ZM103.5,52.791a4.911,4.911,0,0,1-1.778,3.711,8.3,8.3,0,0,1-5.341,1.444,29.8,29.8,0,0,0,2.993-6.716,1.235,1.235,0,1,0-2.363-.72A27.331,27.331,0,0,1,93.874,57.3L84.3,47.724c-.014-.014-.03-.026-.044-.04a14.532,14.532,0,0,0,0-10.477c.014-.013.029-.025.043-.039L93.874,27.6a27.426,27.426,0,0,1,4.044,18.867,1.235,1.235,0,1,0,2.445.357A30.026,30.026,0,0,0,99.208,33.1q.227.322.453.673c3.786,5.9,4.18,13.6,3.843,19.018Z" transform="translate(-8782.127 17421.805)"/>
  </g>
</svg>
