<svg id="logo" xmlns="http://www.w3.org/2000/svg" width="292.58" height="68.074" viewBox="0 0 292.58 68.074">
  <text id="F" transform="translate(0 54.281)" font-size="50" font-family="SegoeUI, Segoe UI"><tspan x="0" y="0">F</tspan></text>
  <text id="R" transform="translate(68.266 55.075)" font-size="50" font-family="SegoeUI, Segoe UI"><tspan x="0" y="0">R</tspan></text>
  <text id="GUARDS" transform="translate(97.58 55)" fill="#ed6a5a" font-size="51" font-family="SegoeUI, Segoe UI"><tspan x="0" y="0">G</tspan><tspan y="0" letter-spacing="-0.01em">U</tspan><tspan y="0">ARDS</tspan></text>
  <path id="Path_24" data-name="Path 24" d="M72.678,18.938a17.764,17.764,0,1,0,0,25.122A17.764,17.764,0,0,0,72.678,18.938ZM54.293,37.322a8.236,8.236,0,1,1,11.648,0,8.236,8.236,0,0,1-11.648,0Z" transform="translate(-12.305 5.604)" fill="#e6e6e6"/>
  <path id="Path_25" data-name="Path 25" d="M52.425,44.059A17.764,17.764,0,0,1,62.552,13.9a17.764,17.764,0,1,0,0,35.193,17.684,17.684,0,0,1-10.127-5.035Z" transform="translate(-12.307 5.605)" fill="#ccc"/>
  <path id="Path_26" data-name="Path 26" d="M85.223,18.937A17.718,17.718,0,0,0,71.8,13.755a17.764,17.764,0,0,1,0,35.486,17.764,17.764,0,0,0,13.423-30.3Z" transform="translate(-24.686 5.605)" fill="#fff"/>
  <path id="Path_27" data-name="Path 27" d="M90.3,23.245l-5.085,5.085h0L83.7,29.839a1.377,1.377,0,0,1-1.951,0L79.611,27.7a1.377,1.377,0,0,1,0-1.951L83.152,22.2,86.2,19.151a1.377,1.377,0,0,1,1.951,0L90.3,21.293a1.377,1.377,0,0,1,0,1.951Z" transform="translate(-27.831 3.469)" fill="#ed6a5a"/>
  <path id="Path_28" data-name="Path 28" d="M88.156,61.682,90.3,59.539a1.377,1.377,0,0,0,0-1.951l-6.594-6.595a1.377,1.377,0,0,0-1.951,0l-2.143,2.143a1.377,1.377,0,0,0,0,1.951L86.2,61.682a1.377,1.377,0,0,0,1.951,0Z" transform="translate(-27.831 -10.097)" fill="#ed6a5a"/>
  <path id="Path_29" data-name="Path 29" d="M85.215,30.9h0L83.7,32.406a1.377,1.377,0,0,1-1.951,0l-2.142-2.142a1.377,1.377,0,0,1,0-1.951l3.541-3.541A7.543,7.543,0,0,0,85.215,30.9Z" transform="translate(-28.007 0.902)" fill="#ed6a5a"/>
  <path id="Path_30" data-name="Path 30" d="M85.215,52.5h0L83.7,51a1.377,1.377,0,0,0-1.951,0l-2.142,2.142a1.377,1.377,0,0,0,0,1.951l3.541,3.542a7.543,7.543,0,0,1,2.063-6.123Z" transform="translate(-28.007 -10.098)" fill="#ed6a5a"/>
  <path id="Path_31" data-name="Path 31" d="M58.456,55.088,54.99,58.554l-3.13,3.128a1.377,1.377,0,0,1-1.951,0l-2.143-2.143a1.377,1.377,0,0,1,0-1.951l6.6-6.595a1.377,1.377,0,0,1,1.951,0l2.143,2.142a1.382,1.382,0,0,1,0,1.951Z" transform="translate(-14.438 -10.097)" fill="#ed6a5a"/>
  <path id="Path_32" data-name="Path 32" d="M58.457,27.7l-2.143,2.142a1.377,1.377,0,0,1-1.951,0L51.99,27.467l-4.223-4.223a1.377,1.377,0,0,1,0-1.951l2.142-2.141a1.377,1.377,0,0,1,1.951,0l3.13,3.127,3.467,3.467a1.377,1.377,0,0,1,0,1.951Z" transform="translate(-14.439 3.469)" fill="#ed6a5a"/>
  <path id="Path_33" data-name="Path 33" d="M47.768,23.245a1.377,1.377,0,0,1,0-1.951l2.141-2.142a1.377,1.377,0,0,1,1.951,0l3.13,3.127a17.626,17.626,0,0,0-3,5.187l-4.222-4.223Z" transform="translate(-14.44 3.469)" fill="#ed6a5a"/>
  <path id="Path_34" data-name="Path 34" d="M51.989,55.428a17.62,17.62,0,0,0,3,5.188l-3.13,3.129a1.377,1.377,0,0,1-1.951,0L47.765,61.6a1.377,1.377,0,0,1,0-1.951l4.222-4.222Z" transform="translate(-14.438 -12.159)" fill="#ed6a5a"/>
  <path id="Path_35" data-name="Path 35" d="M76.046,24.649a10.3,10.3,0,0,0-3.214-3.243q-.246-.41-.517-.809a2.144,2.144,0,0,0-.36-2.548l-2.143-2.143a2.141,2.141,0,0,0-2.549-.36,18.383,18.383,0,0,0-4.719-2.278.762.762,0,0,0-.459,1.453A16.861,16.861,0,0,1,66.093,16.6l-5.9,5.9-.024.026a8.962,8.962,0,0,0-6.461,0c-.009-.009-.016-.018-.024-.027l-5.9-5.9a16.925,16.925,0,0,1,11.489-2.513.762.762,0,0,0,.208-1.509,18.443,18.443,0,0,0-12.871,2.97,2.141,2.141,0,0,0-2.548.36L41.915,18.05a2.141,2.141,0,0,0-.361,2.548q-.244.362-.469.732l-.021-.044a9.683,9.683,0,0,0-3.43,3.363c-2.619,4-2.9,9.142-2.678,12.753a4.549,4.549,0,0,0,1.664,3.386,6.431,6.431,0,0,0,4.038,1.227c.216,0,.436-.009.658-.025a2.137,2.137,0,0,0,.6,1.816l2.143,2.143a2.14,2.14,0,0,0,2.549.36l.076.052a10.611,10.611,0,0,0,10.251,6.789,10.611,10.611,0,0,0,10.255-6.787l.076-.052a2.14,2.14,0,0,0,2.549-.36l2.143-2.143a2.137,2.137,0,0,0,.6-1.8c.155.007.309.013.459.013a6.432,6.432,0,0,0,4.033-1.23A4.549,4.549,0,0,0,78.721,37.4c.224-3.61-.057-8.753-2.677-12.753ZM61.271,23.58l6.6-6.6a.618.618,0,0,1,.874,0l2.144,2.143a.619.619,0,0,1,0,.874l-6.6,6.595a.618.618,0,0,1-.874,0l-2.142-2.144a.618.618,0,0,1,0-.874Zm-1.7.354c0,.028,0,.057,0,.084a2.127,2.127,0,0,0,.627,1.515l2.143,2.143a2.128,2.128,0,0,0,1.514.627c.028,0,.057,0,.084,0a7.441,7.441,0,0,1,0,5.263c-.028,0-.057,0-.083,0a2.127,2.127,0,0,0-1.514.627l-2.143,2.143a2.128,2.128,0,0,0-.627,1.515c0,.028,0,.057,0,.083a7.44,7.44,0,0,1-5.264,0,2.134,2.134,0,0,0-.622-1.6l-2.143-2.143a2.128,2.128,0,0,0-1.515-.627c-.028,0-.057,0-.083,0a7.44,7.44,0,0,1,0-5.263c.028,0,.057,0,.083,0a2.127,2.127,0,0,0,1.515-.627l2.143-2.143a2.134,2.134,0,0,0,.621-1.6,7.438,7.438,0,0,1,5.265,0ZM42.609,40.086a17.025,17.025,0,0,1,0-18.316l5.9,5.9.027.024a8.96,8.96,0,0,0,0,6.461c-.009.009-.018.015-.026.024Zm.385-20.959,2.143-2.143a.618.618,0,0,1,.874,0l6.6,6.595a.619.619,0,0,1,0,.874L50.464,26.6a.618.618,0,0,1-.874,0L42.994,20A.618.618,0,0,1,42.994,19.128ZM37.575,39.6a3.029,3.029,0,0,1-1.1-2.288c-.208-3.341.036-8.087,2.37-11.728.214-.333.429-.631.642-.9a18.6,18.6,0,0,0,1.57,15.8A5.234,5.234,0,0,1,37.575,39.6Zm8,5.457a.615.615,0,0,1-.437-.181L42.993,42.73a.619.619,0,0,1,0-.874l6.6-6.6a.618.618,0,0,1,.874,0L52.607,37.4a.619.619,0,0,1,0,.874l-1.18,1.181A.762.762,0,0,0,52.5,40.536l1.182-1.181.024-.026a8.95,8.95,0,0,0,6.461,0c.009.009.016.018.025.028l5.9,5.9a17.024,17.024,0,0,1-18.316,0l3.147-3.147a.762.762,0,1,0-1.077-1.077l-3.839,3.839a.614.614,0,0,1-.437.181Zm11.364,6.572a9.028,9.028,0,0,1-7.775-3.874,18.6,18.6,0,0,0,15.552,0,9.033,9.033,0,0,1-7.777,3.871Zm13.947-8.9-2.143,2.143h0a.618.618,0,0,1-.874,0l-6.6-6.6a.618.618,0,0,1,0-.874l2.143-2.143a.618.618,0,0,1,.874,0l6.6,6.6a.619.619,0,0,1,0,.874Zm6.32-5.422a3.029,3.029,0,0,1-1.1,2.288,5.117,5.117,0,0,1-3.294.891,18.377,18.377,0,0,0,1.846-4.142A.762.762,0,1,0,73.2,35.9a16.855,16.855,0,0,1-1.934,4.185l-5.9-5.9-.027-.025a8.962,8.962,0,0,0,0-6.461l.026-.024,5.9-5.9a16.913,16.913,0,0,1,2.494,11.635.762.762,0,0,0,1.508.22,18.517,18.517,0,0,0-.712-8.461q.14.2.28.415c2.335,3.641,2.578,8.387,2.37,11.728Z" transform="translate(-9.127 6.174)"/>
</svg>
